HIERARCHY
ROOT joint_Root
{
	OFFSET 0.0 0.0 0.0
	CHANNELS 6 Xposition Yposition Zposition Zrotation Xrotation Yrotation 
	JOINT Hips
	{
		OFFSET -17.1583 93.1646 452.98
		CHANNELS 6 Xposition Yposition Zposition Zrotation Xrotation Yrotation 
		JOINT Spine
		{
			OFFSET 15.7357 0.0 0.0
			CHANNELS 6 Xposition Yposition Zposition Zrotation Xrotation Yrotation 
			JOINT Chest
			{
				OFFSET 8.98455 -0.406207 0.0
				CHANNELS 6 Xposition Yposition Zposition Zrotation Xrotation Yrotation 
				JOINT Neck
				{
					OFFSET 16.3773 0.0 0.0
					CHANNELS 6 Xposition Yposition Zposition Zrotation Xrotation Yrotation 
					JOINT Head
					{
						OFFSET 6.45672 0.0 0.0
						CHANNELS 6 Xposition Yposition Zposition Zrotation Xrotation Yrotation 
						End Site
						{
							OFFSET 0.0 0.0 0.0
						}
					}
				}
				JOINT Shoulder_L
				{
					OFFSET 12.9942 -0.242716 4.98039
					CHANNELS 6 Xposition Yposition Zposition Zrotation Xrotation Yrotation 
					JOINT UpperArm_L
					{
						OFFSET 5.34809 0.0 0.0
						CHANNELS 6 Xposition Yposition Zposition Zrotation Xrotation Yrotation 
						JOINT LowerArm_L
						{
							OFFSET 24.3286 1.87007e-05 0.0
							CHANNELS 6 Xposition Yposition Zposition Zrotation Xrotation Yrotation 
							JOINT Hand_L
							{
								OFFSET 22.2916 0.0 0.0
								CHANNELS 6 Xposition Yposition Zposition Zrotation Xrotation Yrotation 
								End Site
								{
									OFFSET 0.0 0.0 0.0
								}
							}
						}
					}
				}
				JOINT Shoulder_R
				{
					OFFSET 12.9945 -0.242716 -4.98039
					CHANNELS 6 Xposition Yposition Zposition Zrotation Xrotation Yrotation 
					JOINT UpperArm_R
					{
						OFFSET -5.34813 0.0 0.0
						CHANNELS 6 Xposition Yposition Zposition Zrotation Xrotation Yrotation 
						JOINT LowerArm_R
						{
							OFFSET -24.3289 0.000322201 0.0
							CHANNELS 6 Xposition Yposition Zposition Zrotation Xrotation Yrotation 
							JOINT Hand_R
							{
								OFFSET -22.2915 -0.000108084 0.0
								CHANNELS 6 Xposition Yposition Zposition Zrotation Xrotation Yrotation 
								End Site
								{
									OFFSET 0.0 0.0 0.0
								}
							}
						}
					}
				}
			}
		}
		JOINT UpperLeg_L
		{
			OFFSET -2.19248 -6.46944 0.0
			CHANNELS 6 Xposition Yposition Zposition Zrotation Xrotation Yrotation 
			JOINT LowerLeg_L
			{
				OFFSET 39.0811 0.0 -1.23785e-05
				CHANNELS 6 Xposition Yposition Zposition Zrotation Xrotation Yrotation 
				JOINT Foot_L
				{
					OFFSET 40.9854 0.0 -1.26872e-05
					CHANNELS 6 Xposition Yposition Zposition Zrotation Xrotation Yrotation 
					JOINT Toes_L
					{
						OFFSET 11.7543 0.0 0.0
						CHANNELS 6 Xposition Yposition Zposition Zrotation Xrotation Yrotation 
						End Site
						{
							OFFSET 0.0 0.0 0.0
						}
					}
				}
			}
		}
		JOINT UpperLeg_R
		{
			OFFSET -2.19251 6.46944 0.0
			CHANNELS 6 Xposition Yposition Zposition Zrotation Xrotation Yrotation 
			JOINT LowerLeg_R
			{
				OFFSET -39.0811 -0.00228153 -0.0401928
				CHANNELS 6 Xposition Yposition Zposition Zrotation Xrotation Yrotation 
				JOINT Foot_R
				{
					OFFSET -40.9854 0.0 0.0
					CHANNELS 6 Xposition Yposition Zposition Zrotation Xrotation Yrotation 
					JOINT Toes_R
					{
						OFFSET -11.7543 0.0 0.0
						CHANNELS 6 Xposition Yposition Zposition Zrotation Xrotation Yrotation 
						End Site
						{
							OFFSET 0.0 0.0 0.0
						}
					}
				}
			}
		}
	}
}
MOTION
Frames:	4
Frame Time:	0.0333333
0.000000 0.000000 0.000000 0.000000 0.000000 -0.000000 -0.346165 93.032500 0.482422 88.524600 0.274417 1.650130 15.735700 0.000005 -0.000001 106.199000 87.164800 -106.026000 8.984550 -0.406207 -0.000000 -2.323380 1.566220 0.377300 16.377300 -0.000001 -0.000001 0.618105 1.787150 -2.381750 6.456720 -0.000001 -0.000000 4.550120 0.414352 3.486850 12.994200 -0.242716 4.980390 -92.706600 8.519650 -72.302000 5.348090 -0.000007 -0.000001 -67.961400 20.672300 -3.630680 24.328600 0.000019 0.000005 9.492930 30.175800 -18.402300 22.291600 -0.000001 0.000005 -10.551800 5.211140 2.367910 12.994500 -0.242716 -4.980390 88.438900 5.907110 -75.168100 -5.348130 -0.000001 -0.000004 -72.023200 30.012400 -3.623810 -24.328900 0.000322 -0.000009 1.524340 5.374770 -15.870000 -22.291500 -0.000108 -0.000004 1.749780 5.290340 0.341691 -2.192480 -6.469440 -0.000000 -173.976000 -3.909240 0.490361 39.081100 -0.000007 -0.000012 0.031146 -0.116378 14.983000 40.985400 -0.000006 -0.000013 -1.052860 11.508000 -69.013000 11.754300 -0.000000 0.000003 -0.000111 0.169471 -9.703080 -2.192510 6.469440 -0.000001 176.290000 5.241270 -177.320000 -39.081100 -0.002282 -0.040193 0.008408 -0.024610 11.646200 -40.985400 0.000008 0.000006 -7.445690 5.629710 -67.677300 -11.754300 -0.000006 -0.000006 -0.010112 0.272141 -5.516790
0.000000 0.000000 0.000000 0.000000 0.000000 -0.000000 -0.451149 93.010800 0.591833 88.496500 0.170752 1.663440 15.735700 0.000005 -0.000001 110.031000 87.064600 -109.869000 8.984550 -0.406207 -0.000000 -2.253620 1.996180 0.363971 16.377300 -0.000001 -0.000001 0.492169 1.563220 -1.807670 6.456720 -0.000001 -0.000000 3.794830 0.170610 4.313010 12.994200 -0.242716 4.980390 -92.809800 8.741060 -72.102100 5.348090 -0.000007 -0.000001 -63.934800 19.653800 -7.391410 24.328600 0.000019 0.000005 9.826370 35.431100 -16.635700 22.291600 -0.000001 0.000005 -18.645100 5.363920 -1.863740 12.994500 -0.242716 -4.980390 88.393600 6.103350 -75.223500 -5.348130 -0.000001 -0.000004 -72.129800 29.003700 -2.549430 -24.328900 0.000322 -0.000009 1.392980 4.638710 -16.747900 -22.291500 -0.000108 -0.000004 1.379820 5.293670 0.248558 -2.192480 -6.469440 -0.000000 -173.815000 -4.261730 0.592252 39.081100 -0.000007 -0.000012 0.029713 -0.110820 15.009200 40.985400 -0.000006 -0.000013 -1.090670 11.777100 -69.095800 11.754300 -0.000000 0.000003 -0.000118 0.169583 -9.698500 -2.192510 6.469440 -0.000001 176.304000 5.606710 -177.341000 -39.081100 -0.002282 -0.040193 0.008669 -0.025425 11.847100 -40.985400 0.000008 0.000006 -7.376570 6.128020 -67.769500 -11.754300 -0.000006 -0.000006 -0.010232 0.273031 -5.480390
0.000000 0.000000 0.000000 0.000000 0.000000 -0.000000 -0.542052 93.020600 0.701321 88.485400 0.208195 1.442940 15.735700 0.000005 -0.000001 112.690000 87.078800 -112.416000 8.984550 -0.406207 -0.000000 -2.381790 2.228710 0.595570 16.377300 -0.000001 -0.000001 0.299821 1.547610 -1.349120 6.456720 -0.000001 -0.000000 2.806460 0.158148 5.264460 12.994200 -0.242716 4.980390 -92.692500 8.297200 -71.950100 5.348090 -0.000007 -0.000001 -60.008000 14.176100 -11.635100 24.328600 0.000019 0.000005 7.959630 37.657000 -12.891200 22.291600 -0.000001 0.000005 -26.883800 5.379350 -2.249960 12.994500 -0.242716 -4.980390 88.369600 6.153530 -75.129500 -5.348130 -0.000001 -0.000004 -72.055000 27.495900 -1.697900 -24.328900 0.000322 -0.000009 1.096790 3.575530 -17.081000 -22.291500 -0.000108 -0.000004 1.397990 5.307720 -0.144921 -2.192480 -6.469440 -0.000000 -173.727000 -4.359640 0.571092 39.081100 -0.000007 -0.000012 0.028396 -0.107981 14.733800 40.985400 -0.000006 -0.000013 -1.162960 11.926900 -69.026900 11.754300 -0.000000 0.000003 -0.000257 0.171840 -9.606840 -2.192510 6.469440 -0.000001 176.192000 6.679060 -177.394000 -39.081100 -0.002282 -0.040193 0.006203 -0.013887 11.666700 -40.985400 0.000008 0.000006 -7.635480 7.198800 -67.462000 -11.754300 -0.000006 -0.000006 -0.009903 0.270580 -5.580640
0.000000 0.000000 0.000000 0.000000 0.000000 -0.000000 -0.600591 93.065000 0.756912 88.571100 0.335410 0.801961 15.735700 0.000005 -0.000001 112.676000 87.321500 -112.165000 8.984550 -0.406207 -0.000000 -2.832690 2.017160 1.071770 16.377300 -0.000001 -0.000001 0.054676 1.815270 -0.944499 6.456720 -0.000001 -0.000000 1.462710 0.665160 5.922570 12.994200 -0.242716 4.980390 -92.425300 7.320380 -71.612800 5.348090 -0.000007 -0.000001 -56.578400 3.976290 -15.751800 24.328600 0.000019 0.000005 5.033280 38.857700 -7.991560 22.291600 -0.000001 0.000005 -28.326100 5.301480 0.017634 12.994500 -0.242716 -4.980390 88.393500 5.941020 -74.838900 -5.348130 -0.000001 -0.000004 -71.886800 25.483300 -1.450830 -24.328900 0.000322 -0.000009 1.242110 4.169720 -16.618400 -22.291500 -0.000108 -0.000004 1.810840 5.310990 -0.237908 -2.192480 -6.469440 -0.000000 -173.779000 -4.647990 0.280072 39.081100 -0.000007 -0.000012 0.028154 -0.112142 14.093500 40.985400 -0.000006 -0.000013 -1.228670 12.260800 -68.871700 11.754300 -0.000000 0.000003 -0.000328 0.172975 -9.560740 -2.192510 6.469440 -0.000001 176.084000 7.358610 -177.783000 -39.081100 -0.002282 -0.040193 0.005397 -0.010362 11.242900 -40.985400 0.000008 0.000006 -8.087220 7.741130 -67.104900 -11.754300 -0.000006 -0.000006 -0.010507 0.275055 -5.397570
